<?xml version="1.0" standalone="no"?>
<!DOCTYPE svg PUBLIC "-//W3C//DTD SVG 20010904//EN"
 "http://www.w3.org/TR/2001/REC-SVG-20010904/DTD/svg10.dtd">
<svg version="1.0" xmlns="http://www.w3.org/2000/svg"
 width="322.000000pt" height="264.000000pt" viewBox="0 0 322.000000 264.000000"
 preserveAspectRatio="xMidYMid meet">

<g transform="translate(0.000000,264.000000) scale(0.100000,-0.100000)"
fill="#ffffff" stroke="none">
<path d="M1750 2585 c-73 -18 -122 -39 -195 -83 -97 -58 -139 -97 -206 -192
l-63 -89 -25 17 c-92 62 -198 77 -300 42 -78 -26 -121 -57 -160 -117 -26 -39
-36 -69 -57 -180 -4 -21 -10 -23 -59 -23 -72 0 -136 -22 -213 -73 -72 -48
-110 -97 -142 -182 -72 -195 20 -398 220 -484 30 -13 170 -16 1040 -19 902 -2
1012 -1 1072 14 86 21 142 57 195 125 66 85 86 141 86 229 0 131 -62 248 -167
317 -72 48 -106 62 -171 71 l-49 7 -12 70 c-43 256 -210 453 -454 536 -83 28
-258 36 -340 14z"/>
<path d="M195 812 c-139 -46 -204 -215 -133 -345 31 -56 87 -92 188 -120 89
-26 113 -44 94 -75 -18 -28 -65 -26 -128 8 -63 32 -85 36 -119 19 -61 -31 -76
-105 -32 -158 14 -16 51 -42 81 -57 45 -22 70 -27 132 -28 43 0 95 5 116 13
49 17 134 94 152 138 17 39 18 140 3 180 -23 61 -97 114 -206 146 -75 23 -93
34 -93 62 0 39 41 43 110 10 66 -32 108 -30 147 7 61 57 5 159 -109 197 -73
25 -135 26 -203 3z"/>
<path d="M973 810 c-17 -10 -37 -28 -42 -39 -17 -31 -67 -167 -146 -399 -63
-181 -72 -217 -64 -245 27 -96 147 -97 194 -1 20 41 21 41 85 48 36 3 90 6
121 6 56 0 56 0 74 -39 32 -73 81 -101 140 -81 39 13 65 52 65 98 0 43 -171
531 -212 604 -36 64 -148 89 -215 48z m116 -345 c16 -44 32 -88 36 -97 6 -16
0 -18 -64 -18 -43 0 -71 4 -71 10 0 15 62 191 66 188 1 -2 16 -39 33 -83z"/>
<path d="M1916 814 c-100 -31 -171 -97 -223 -210 -25 -52 -28 -71 -28 -159 0
-93 2 -105 32 -166 41 -82 111 -150 200 -191 57 -27 79 -32 144 -32 67 0 86 5
143 33 36 17 74 44 86 58 29 37 27 97 -4 128 -38 38 -69 41 -135 11 -67 -30
-97 -32 -149 -11 -49 21 -81 52 -103 100 -23 49 -24 94 -4 143 23 54 52 80
111 99 51 16 55 15 119 -5 78 -26 96 -27 135 -7 64 33 64 101 0 159 -69 62
-211 84 -324 50z"/>
<path d="M2755 812 c-47 -22 -51 -29 -115 -217 -27 -77 -71 -201 -99 -275 -69
-183 -66 -234 14 -260 59 -19 116 21 151 108 1 1 57 5 126 8 l125 6 24 -48
c42 -85 115 -105 172 -48 42 42 40 67 -20 229 -30 83 -74 207 -98 277 -48 143
-68 182 -107 211 -39 29 -122 33 -173 9z m114 -360 c17 -51 31 -95 31 -98 0
-2 -29 -4 -65 -4 -39 0 -65 4 -65 10 0 14 62 192 65 188 2 -2 17 -45 34 -96z"/>
</g>
</svg>
